<svg width="100" height="24" viewBox="0 0 100 24" fill="none" xmlns="http://www.w3.org/2000/svg">
<g clip-path="url(#clip0_1_2)">
<path d="M25.9 17.96H25.84C25.6667 18.6133 25.24 19.16 24.56 19.6C23.8933 20.0267 23.0267 20.24 21.96 20.24C21.1067 20.24 20.32 20.0867 19.6 19.78C18.8933 19.46 18.2867 19 17.78 18.4C17.2733 17.7867 16.8733 17.0333 16.58 16.14C16.3 15.2333 16.16 14.1933 16.16 13.02C16.16 11.86 16.3 10.8333 16.58 9.94C16.86 9.03333 17.26 8.28 17.78 7.68C18.3 7.06667 18.9267 6.6 19.66 6.28C20.3933 5.96 21.2067 5.8 22.1 5.8C23.3533 5.8 24.4 6.08 25.24 6.64C26.08 7.2 26.7267 7.94 27.18 8.86L25.8 9.7C25.48 8.95333 25 8.36667 24.36 7.94C23.7333 7.51333 22.98 7.3 22.1 7.3C21.4867 7.3 20.9267 7.41333 20.42 7.64C19.9133 7.85333 19.4733 8.16 19.1 8.56C18.74 8.96 18.46 9.44 18.26 10C18.06 10.56 17.96 11.1867 17.96 11.88V14.14C17.96 14.8333 18.06 15.4667 18.26 16.04C18.46 16.6 18.74 17.08 19.1 17.48C19.4733 17.88 19.9267 18.1933 20.46 18.42C20.9933 18.6333 21.5933 18.74 22.26 18.74C22.74 18.74 23.1933 18.68 23.62 18.56C24.06 18.4267 24.44 18.2333 24.76 17.98C25.0933 17.7267 25.3533 17.4133 25.54 17.04C25.7267 16.6533 25.82 16.2 25.82 15.68V14.3H22.74V12.82H27.46V20H25.9V17.96ZM31.4062 7.26C31.0596 7.26 30.8063 7.18 30.6463 7.02C30.4996 6.84667 30.4263 6.62667 30.4263 6.36V6.1C30.4263 5.83333 30.4996 5.62 30.6463 5.46C30.8063 5.28667 31.0596 5.2 31.4062 5.2C31.7529 5.2 31.9996 5.28667 32.1463 5.46C32.3063 5.62 32.3863 5.83333 32.3863 6.1V6.36C32.3863 6.62667 32.3063 6.84667 32.1463 7.02C31.9996 7.18 31.7529 7.26 31.4062 7.26ZM30.6063 9.68H32.2063V20H30.6063V9.68ZM36.1663 11.08H34.4863V9.68H36.1663V7.6C36.1663 6.88 36.3529 6.3 36.7263 5.86C37.0996 5.42 37.6663 5.2 38.4263 5.2H39.9863V6.6H37.7663V9.68H39.9863V11.08H37.7663V20H36.1663V11.08ZM44.3706 20C43.8106 20 43.384 19.8467 43.0906 19.54C42.8106 19.22 42.6706 18.8067 42.6706 18.3V11.08H40.9706V9.68H41.9306C42.2773 9.68 42.5106 9.61333 42.6306 9.48C42.764 9.33333 42.8306 9.08667 42.8306 8.74V6.82H44.2706V9.68H46.5306V11.08H44.2706V18.6H46.3706V20H44.3706ZM52.2023 20.24C51.2423 20.24 50.4357 20.06 49.7823 19.7C49.1423 19.3267 48.589 18.8333 48.1223 18.22L49.2623 17.3C49.6623 17.8067 50.109 18.2 50.6023 18.48C51.0957 18.7467 51.669 18.88 52.3223 18.88C53.0023 18.88 53.529 18.7333 53.9023 18.44C54.289 18.1467 54.4823 17.7333 54.4823 17.2C54.4823 16.8 54.349 16.46 54.0823 16.18C53.829 15.8867 53.3623 15.6867 52.6823 15.58L51.8623 15.46C51.3823 15.3933 50.9423 15.2933 50.5423 15.16C50.1423 15.0133 49.789 14.8267 49.4823 14.6C49.189 14.36 48.9557 14.0667 48.7823 13.72C48.6223 13.3733 48.5423 12.96 48.5423 12.48C48.5423 11.9733 48.6357 11.5333 48.8223 11.16C49.009 10.7733 49.2623 10.4533 49.5823 10.2C49.9157 9.94667 50.309 9.76 50.7623 9.64C51.2157 9.50667 51.7023 9.44 52.2223 9.44C53.0623 9.44 53.7623 9.58667 54.3223 9.88C54.8957 10.1733 55.3957 10.58 55.8223 11.1L54.7623 12.06C54.5357 11.74 54.2023 11.4533 53.7623 11.2C53.3223 10.9333 52.769 10.8 52.1023 10.8C51.4357 10.8 50.929 10.9467 50.5823 11.24C50.249 11.52 50.0823 11.9067 50.0823 12.4C50.0823 12.9067 50.249 13.2733 50.5823 13.5C50.929 13.7267 51.4223 13.8933 52.0623 14L52.8623 14.12C54.009 14.2933 54.8223 14.6267 55.3023 15.12C55.7823 15.6 56.0223 16.2333 56.0223 17.02C56.0223 18.02 55.6823 18.8067 55.0023 19.38C54.3223 19.9533 53.389 20.24 52.2023 20.24ZM72.315 20L71.055 16.22H65.835L64.615 20H62.315L67.075 6.04H69.915L74.675 20H72.315ZM68.495 8.12H68.395L66.375 14.28H70.495L68.495 8.12ZM76.2372 20V18.16H78.1372V7.88H76.2372V6.04H82.3172V7.88H80.3972V18.16H82.3172V20H76.2372Z" fill="white"/>
</g>
<defs>
<clipPath id="clip0_1_2">
<rect width="100" height="24" fill="white"/>
</clipPath>
</defs>
</svg>
